<svg width="196" height="140" viewBox="0 0 196 140" fill="none" xmlns="http://www.w3.org/2000/svg">
<path d="M34.98 66.08C28.44 66.08 22.53 64.67 17.25 61.85C12.03 59.03 7.92 55.16 4.92 50.24C1.98 45.26 0.51 39.68 0.51 33.5C0.51 27.32 1.98 21.77 4.92 16.85C7.92 11.87 12.03 7.97 17.25 5.15C22.53 2.33 28.44 0.919999 34.98 0.919999C41.52 0.919999 47.4 2.33 52.62 5.15C57.84 7.97 61.95 11.87 64.95 16.85C67.95 21.77 69.45 27.32 69.45 33.5C69.45 39.68 67.95 45.26 64.95 50.24C61.95 55.16 57.84 59.03 52.62 61.85C47.4 64.67 41.52 66.08 34.98 66.08ZM34.98 53.66C38.7 53.66 42.06 52.82 45.06 51.14C48.06 49.4 50.4 47 52.08 43.94C53.82 40.88 54.69 37.4 54.69 33.5C54.69 29.6 53.82 26.12 52.08 23.06C50.4 20 48.06 17.63 45.06 15.95C42.06 14.21 38.7 13.34 34.98 13.34C31.26 13.34 27.9 14.21 24.9 15.95C21.9 17.63 19.53 20 17.79 23.06C16.11 26.12 15.27 29.6 15.27 33.5C15.27 37.4 16.11 40.88 17.79 43.94C19.53 47 21.9 49.4 24.9 51.14C27.9 52.82 31.26 53.66 34.98 53.66ZM134.588 65L134.498 27.2L115.957 58.34H109.388L90.9375 28.01V65H77.2575V2H89.3175L112.898 41.15L136.118 2H148.088L148.268 65H134.588ZM27.42 114.25L18.96 123.07V139H4.47V76H18.96V105.43L46.86 76H63.06L36.96 104.08L64.59 139H47.58L27.42 114.25ZM98.0686 125.5H68.8186L63.2386 139H48.2986L76.3786 76H90.7786L118.949 139H103.649L98.0686 125.5ZM93.4786 114.43L83.4886 90.31L73.4986 114.43H93.4786ZM153.925 139L141.775 121.45H141.055H128.365V139H113.785V76H141.055C146.635 76 151.465 76.93 155.545 78.79C159.685 80.65 162.865 83.29 165.085 86.71C167.305 90.13 168.415 94.18 168.415 98.86C168.415 103.54 167.275 107.59 164.995 111.01C162.775 114.37 159.595 116.95 155.455 118.75L169.585 139H153.925ZM153.655 98.86C153.655 95.32 152.515 92.62 150.235 90.76C147.955 88.84 144.625 87.88 140.245 87.88H128.365V109.84H140.245C144.625 109.84 147.955 108.88 150.235 106.96C152.515 105.04 153.655 102.34 153.655 98.86ZM186.375 139.72C183.915 139.72 181.845 138.88 180.165 137.2C178.485 135.52 177.645 133.42 177.645 130.9C177.645 128.32 178.485 126.25 180.165 124.69C181.845 123.07 183.915 122.26 186.375 122.26C188.835 122.26 190.905 123.07 192.585 124.69C194.265 126.25 195.105 128.32 195.105 130.9C195.105 133.42 194.265 135.52 192.585 137.2C190.905 138.88 188.835 139.72 186.375 139.72Z" fill="white"/>
</svg>
