<svg width="49" height="35" viewBox="0 0 49 35" fill="none" xmlns="http://www.w3.org/2000/svg">
<path d="M9.284 16.2932C7.68533 16.2932 6.24067 15.9485 4.95 15.2592C3.674 14.5698 2.66933 13.6238 1.936 12.4212C1.21733 11.2038 0.858 9.83983 0.858 8.32916C0.858 6.81849 1.21733 5.46183 1.936 4.25916C2.66933 3.04183 3.674 2.08849 4.95 1.39916C6.24067 0.709826 7.68533 0.365159 9.284 0.365159C10.8827 0.365159 12.32 0.709826 13.596 1.39916C14.872 2.08849 15.8767 3.04183 16.61 4.25916C17.3433 5.46183 17.71 6.81849 17.71 8.32916C17.71 9.83983 17.3433 11.2038 16.61 12.4212C15.8767 13.6238 14.872 14.5698 13.596 15.2592C12.32 15.9485 10.8827 16.2932 9.284 16.2932ZM9.284 13.2572C10.1933 13.2572 11.0147 13.0518 11.748 12.6412C12.4813 12.2158 13.0533 11.6292 13.464 10.8812C13.8893 10.1332 14.102 9.28249 14.102 8.32916C14.102 7.37583 13.8893 6.52516 13.464 5.77716C13.0533 5.02916 12.4813 4.44983 11.748 4.03916C11.0147 3.61383 10.1933 3.40116 9.284 3.40116C8.37467 3.40116 7.55333 3.61383 6.82 4.03916C6.08667 4.44983 5.50733 5.02916 5.082 5.77716C4.67133 6.52516 4.466 7.37583 4.466 8.32916C4.466 9.28249 4.67133 10.1332 5.082 10.8812C5.50733 11.6292 6.08667 12.2158 6.82 12.6412C7.55333 13.0518 8.37467 13.2572 9.284 13.2572ZM33.6325 16.0292L33.6105 6.78916L29.0785 14.4012H27.4725L22.9625 6.98716V16.0292H19.6185V0.629158H22.5665L28.3305 10.1992L34.0065 0.629158H36.9325L36.9765 16.0292H33.6325ZM7.436 27.9792L5.368 30.1352V34.0292H1.826V18.6292H5.368V25.8232L12.188 18.6292H16.148L9.768 25.4932L16.522 34.0292H12.364L7.436 27.9792ZM24.7057 30.7292H17.5557L16.1917 34.0292H12.5397L19.4037 18.6292H22.9237L29.8097 34.0292H26.0697L24.7057 30.7292ZM23.5837 28.0232L21.1417 22.1272L18.6997 28.0232H23.5837ZM38.3594 34.0292L35.3894 29.7392H35.2134H32.1114V34.0292H28.5474V18.6292H35.2134C36.5774 18.6292 37.7581 18.8565 38.7554 19.3112C39.7674 19.7658 40.5447 20.4112 41.0874 21.2472C41.6301 22.0832 41.9014 23.0732 41.9014 24.2172C41.9014 25.3612 41.6227 26.3512 41.0654 27.1872C40.5227 28.0085 39.7454 28.6392 38.7334 29.0792L42.1874 34.0292H38.3594ZM38.2934 24.2172C38.2934 23.3518 38.0147 22.6918 37.4574 22.2372C36.9001 21.7678 36.0861 21.5332 35.0154 21.5332H32.1114V26.9012H35.0154C36.0861 26.9012 36.9001 26.6665 37.4574 26.1972C38.0147 25.7278 38.2934 25.0678 38.2934 24.2172ZM46.2916 34.2052C45.6903 34.2052 45.1843 33.9998 44.7736 33.5892C44.3629 33.1785 44.1576 32.6652 44.1576 32.0492C44.1576 31.4185 44.3629 30.9125 44.7736 30.5312C45.1843 30.1352 45.6903 29.9372 46.2916 29.9372C46.8929 29.9372 47.3989 30.1352 47.8096 30.5312C48.2203 30.9125 48.4256 31.4185 48.4256 32.0492C48.4256 32.6652 48.2203 33.1785 47.8096 33.5892C47.3989 33.9998 46.8929 34.2052 46.2916 34.2052Z" fill="#FF3939"/>
</svg>
